
<svg xmlns="http://www.w3.org/2000/svg" version="1.1" xmlns:xlink="http://www.w3.org/1999/xlink" width="1500" height="1500" viewBox="0 0 1500 1500">
<rect width="1500" height="1500" x="0" y="0" id="background" stroke="transparent" fill="#c0dcfc"></rect>
<svg xml:space="preserve" width="1000" height="1000" data-version="2" data-id="lg_gChm3VCJTcPTmzEPWu" viewBox="0 0 570 117" x="250" y="250">
<rect width="100%" height="100%" fill="transparent"></rect>
<path fill="#ffffff" d="m181.645 86.88-.09-44.37h-23.4v-8.64h58.86v8.64h-23.49v44.37Z"></path>
<rect width="58.86" height="53.01" x="-29.43" y="-26.5" fill="none" rx="0" ry="0" transform="translate(188.09 60.88)"></rect>
<path fill="#ffffff" d="M283.525 87.78q-3.6 0-7.06-1.12-3.47-1.13-7.88-5.54l-6.48-6.48q-3.96-4.05-8.68-5.94-4.73-1.89-11.84-1.89h-2.79v20.07h-11.88V41.16l-.9-7.29h39.87q5.76 0 9.05 1.53 3.28 1.53 4.86 4.01 1.57 2.47 2.02 5.26.45 2.79.45 5.31v1.71q0 1.98-.54 4.41t-2.07 4.77q-1.53 2.34-4.36 3.96-2.84 1.62-7.43 1.89 1.17.63 2.97 1.94 1.8 1.3 3.74 2.83 1.93 1.53 3.55 2.79 1.62 1.26 2.52 1.8 3.24 1.89 5.76 2.61 2.52.72 4.14.81 1.62.09 1.89.09l-1.8 7.29q-.81.27-2.7.59-1.89.31-4.41.31m-31.23-29.16q3.42 0 6.12-.13 2.7-.14 4.86-.32 3.96-.45 5.54-2.2 1.57-1.76 1.57-4.55v-2.07q0-2.88-1.53-4.86-1.53-1.98-5.49-1.98h-24.57v15.66q3.96.27 7.29.36 3.33.09 6.21.09"></path><rect width="66.42" height="53.91" x="-33.21" y="-26.95" fill="none" rx="0" ry="0" transform="translate(259.73 61.33)"></rect><path fill="#ffffff" d="m293.335 86.88 26.37-52.92h17.73l26.28 52.92h-13.86l-5.31-11.43h-32.22l-5.85 11.43Zm22.23-20.25h25.65l-12.33-24.57h-.9Z"></path><rect width="70.38" height="52.92" x="-35.19" y="-26.46" fill="none" rx="0" ry="0" transform="translate(329.02 60.92)"></rect><path fill="#ffffff" d="M384.685 86.88q-6.39 0-9.99-1.8-3.6-1.8-5.04-5.4-1.44-3.6-1.44-8.91V50.7q0-8.64 3.87-12.73 3.87-4.1 12.6-4.1h27.09q6.21 0 9.5.68 3.28.67 3.28 1.39l-1.8 7.47q-1.53-.27-9.04-.58-7.52-.32-21.83-.32h-4.59q-7.2 0-7.2 6.39v22.95q0 3.06 1.58 4.73 1.57 1.66 5.62 1.66h3.69q14.94 0 23.18-.31 8.23-.32 10.21-.68l3.69 5.94q0 .45-1.48 1.35-1.49.9-5.45 1.62-3.96.72-11.43.72Z"></path><rect width="59.85" height="53.01" x="-29.93" y="-26.5" fill="none" rx="0" ry="0" transform="translate(398.64 60.88)"></rect><path fill="#ffffff" d="M447.145 86.88q-6.12 0-9-.54t-2.88-1.26l3.6-7.83q2.07.36 10.31.68 8.23.31 22.63.31h1.71q3.87 0 5.49-1.39 1.62-1.4 1.62-4.73v-1.8q0-3.15-1.3-4.5-1.31-1.35-5.81-1.35h-20.88q-9.09 0-13.23-3.37-4.14-3.38-4.14-11.03v-1.44q0-3.96 1.49-7.29 1.48-3.33 5.08-5.35 3.6-2.03 9.9-2.03h24.48q6.12 0 9.9.63 3.78.63 3.78 1.35l-1.8 7.56q-2.34-.27-10.62-.58-8.28-.32-22.23-.32l-.99-.09q-4.14 0-5.58 1.67-1.44 1.66-1.53 4.18v1.53q0 2.97 1.67 4.46 1.66 1.48 5.53 1.48h19.98q5.76 0 9.81 1.17 4.05 1.17 6.21 4.28 2.16 3.1 2.16 9.13v1.44q0 6.75-3.46 10.89-3.47 4.14-12.02 4.14Z"></path><rect width="57.24" height="52.92" x="-28.62" y="-26.46" fill="none" rx="0" ry="0" transform="translate(464.38 60.92)"></rect><path fill="#ffffff" d="M524.995 86.88V64.92l-26.19-30.96h14.4l13.32 16.83 4.14 5.58h.9l4.14-5.58 13.32-16.83h14.4l-3.51 5.4-23.04 25.92v21.6Z"></path><rect width="64.62" height="52.92" x="-32.31" y="-26.46" fill="none" rx="0" ry="0" transform="translate(531.62 60.92)"></rect><path fill="#ffffff" d="M68.678 106.533c-6.413-1.167-10.677-7.32-9.52-13.719a11.821 11.821 0 0 1 7.868-9.099l3.75-6.98-5.484-5.729a11.269 11.269 0 0 1-1.49-.177 11.659 11.659 0 0 1-7.57-4.888 11.698 11.698 0 0 1-1.924-8.823c1.026-5.626 5.907-9.706 11.607-9.706.697 0 1.395.06 2.108.19 2.975.537 5.6 2.219 7.371 4.587l7.825 1.415 3.82-7.111a11.817 11.817 0 0 1-.216-5.11c1.025-5.626 5.9-9.705 11.602-9.705.692 0 1.395.064 2.108.187.206.04.402.124.607.172V20.973C101.14 9.82 79.75.781 53.357.781 26.967.78 5.574 9.823 5.574 20.975v36.467c0 19.036 20.013 46.029 47.783 57.546 5.469-2.266 10.625-5.157 15.408-8.447-.028-.005-.055-.003-.087-.008"></path><path fill="#ffffff" d="M127.754 66.316a5.631 5.631 0 0 0-3.647-2.349 5.664 5.664 0 0 0-5.626 2.261l-14.9-2.699-2.076-15.306a5.568 5.568 0 0 0 2.515-3.724 5.627 5.627 0 0 0-.925-4.246 5.611 5.611 0 0 0-3.646-2.346 5.67 5.67 0 0 0-6.593 4.567 5.603 5.603 0 0 0 1 4.298L86.51 60.438l-15.126-2.742a5.673 5.673 0 0 0-4.454-4.058c-3.112-.56-6.033 1.538-6.583 4.57a5.67 5.67 0 0 0 4.565 6.59 5.402 5.402 0 0 0 2.736-.201l10.64 11.12-7.275 13.531a5.676 5.676 0 0 0-5.822 4.657 5.687 5.687 0 0 0 4.57 6.592 5.676 5.676 0 0 0 6.59-4.57c.063-.334.09-.664.083-.997l13.853-6.676 10.763 11.252a5.714 5.714 0 0 0-.55 1.607 5.605 5.605 0 0 0 .925 4.244 5.608 5.608 0 0 0 3.645 2.346 5.662 5.662 0 0 0 6.593-4.565 5.624 5.624 0 0 0-.925-4.242 5.623 5.623 0 0 0-2.636-2.066l-2.187-16.11 13.805-6.645a5.517 5.517 0 0 0 3.372 1.144 5.662 5.662 0 0 0 5.573-4.66 5.593 5.593 0 0 0-.912-4.243"></path>
</svg>
</svg>