<svg width="600" height="117" xmlns="http://www.w3.org/2000/svg" version="1.1">

 <g>
  <title>Layer 1</title>
  <svg id="svg_2" y="0" x="-452" viewBox="0 0 570 117" data-id="lg_gChm3VCJTcPTmzEPWu" data-version="2" height="117" width="1500" xml:space="preserve">
   <rect id="svg_3" fill="transparent" height="100%" width="100%"/>
   <path id="svg_4" d="m181.645,86.88l-0.09,-44.37l-23.4,0l0,-8.64l58.86,0l0,8.64l-23.49,0l0,44.37l-11.88,0z" fill="#000"/>
   <rect id="svg_5" fill="none" y="34.38" x="158.66" height="53.01" width="58.86"/>
   <path id="svg_6" d="m283.525,87.78q-3.6,0 -7.06,-1.12q-3.47,-1.13 -7.88,-5.54l-6.48,-6.48q-3.96,-4.05 -8.68,-5.94q-4.73,-1.89 -11.84,-1.89l-2.79,0l0,20.07l-11.88,0l0,-45.72l-0.9,-7.29l39.87,0q5.76,0 9.05,1.53q3.28,1.53 4.86,4.01q1.57,2.47 2.02,5.26q0.45,2.79 0.45,5.31l0,1.71q0,1.98 -0.54,4.41t-2.07,4.77q-1.53,2.34 -4.36,3.96q-2.84,1.62 -7.43,1.89q1.17,0.63 2.97,1.94q1.8,1.3 3.74,2.83q1.93,1.53 3.55,2.79q1.62,1.26 2.52,1.8q3.24,1.89 5.76,2.61q2.52,0.72 4.14,0.81q1.62,0.09 1.89,0.09l-1.8,7.29q-0.81,0.27 -2.7,0.59q-1.89,0.31 -4.41,0.31m-31.23,-29.16q3.42,0 6.12,-0.13q2.7,-0.14 4.86,-0.32q3.96,-0.45 5.54,-2.2q1.57,-1.76 1.57,-4.55l0,-2.07q0,-2.88 -1.53,-4.86q-1.53,-1.98 -5.49,-1.98l-24.57,0l0,15.66q3.96,0.27 7.29,0.36q3.33,0.09 6.21,0.09" fill="#000"/>
   <rect id="svg_7" fill="none" y="34.38" x="226.52001" height="53.91" width="66.42"/>
   <path id="svg_8" d="m293.335,86.88l26.37,-52.92l17.73,0l26.28,52.92l-13.86,0l-5.31,-11.43l-32.22,0l-5.85,11.43l-13.14,0zm22.23,-20.25l25.65,0l-12.33,-24.57l-0.9,0l-12.42,24.57z" fill="#000"/>
   <rect id="svg_9" fill="none" y="34.46" x="293.82999" height="52.92" width="70.38"/>
   <path id="svg_10" d="m384.685,86.88q-6.39,0 -9.99,-1.8q-3.6,-1.8 -5.04,-5.4q-1.44,-3.6 -1.44,-8.91l0,-20.07q0,-8.64 3.87,-12.73q3.87,-4.1 12.6,-4.1l27.09,0q6.21,0 9.5,0.68q3.28,0.67 3.28,1.39l-1.8,7.47q-1.53,-0.27 -9.04,-0.58q-7.52,-0.32 -21.83,-0.32l-4.59,0q-7.2,0 -7.2,6.39l0,22.95q0,3.06 1.58,4.73q1.57,1.66 5.62,1.66l3.69,0q14.94,0 23.18,-0.31q8.23,-0.32 10.21,-0.68l3.69,5.94q0,0.45 -1.48,1.35q-1.49,0.9 -5.45,1.62q-3.96,0.72 -11.43,0.72l-25.02,0z" fill="#000"/>
   <rect id="svg_11" fill="none" y="34.38" x="368.71001" height="53.01" width="59.85"/>
   <path id="svg_12" d="m447.145,86.88q-6.12,0 -9,-0.54t-2.88,-1.26l3.6,-7.83q2.07,0.36 10.31,0.68q8.23,0.31 22.63,0.31l1.71,0q3.87,0 5.49,-1.39q1.62,-1.4 1.62,-4.73l0,-1.8q0,-3.15 -1.3,-4.5q-1.31,-1.35 -5.81,-1.35l-20.88,0q-9.09,0 -13.23,-3.37q-4.14,-3.38 -4.14,-11.03l0,-1.44q0,-3.96 1.49,-7.29q1.48,-3.33 5.08,-5.35q3.6,-2.03 9.9,-2.03l24.48,0q6.12,0 9.9,0.63q3.78,0.63 3.78,1.35l-1.8,7.56q-2.34,-0.27 -10.62,-0.58q-8.28,-0.32 -22.23,-0.32l-0.99,-0.09q-4.14,0 -5.58,1.67q-1.44,1.66 -1.53,4.18l0,1.53q0,2.97 1.67,4.46q1.66,1.48 5.53,1.48l19.98,0q5.76,0 9.81,1.17q4.05,1.17 6.21,4.28q2.16,3.1 2.16,9.13l0,1.44q0,6.75 -3.46,10.89q-3.47,4.14 -12.02,4.14l-29.88,0z" fill="#000"/>
   <rect id="svg_13" fill="none" y="34.46" x="435.76" height="52.92" width="57.24"/>
   <path id="svg_14" d="m524.995,86.88l0,-21.96l-26.19,-30.96l14.4,0l13.32,16.83l4.14,5.58l0.9,0l4.14,-5.58l13.32,-16.83l14.4,0l-3.51,5.4l-23.04,25.92l0,21.6l-11.88,0z" fill="#000"/>
   <rect id="svg_15" fill="none" y="34.46" x="499.31" height="52.92" width="64.62"/>
   <path id="svg_16" d="m68.678,106.533c-6.413,-1.167 -10.677,-7.32 -9.52,-13.719a11.821,11.821 0 0 1 7.868,-9.099l3.75,-6.98l-5.484,-5.729a11.269,11.269 0 0 1 -1.49,-0.177a11.659,11.659 0 0 1 -7.57,-4.888a11.698,11.698 0 0 1 -1.924,-8.823c1.026,-5.626 5.907,-9.706 11.607,-9.706c0.697,0 1.395,0.06 2.108,0.19c2.975,0.537 5.6,2.219 7.371,4.587l7.825,1.415l3.82,-7.111a11.817,11.817 0 0 1 -0.216,-5.11c1.025,-5.626 5.9,-9.705 11.602,-9.705c0.692,0 1.395,0.064 2.108,0.187c0.206,0.04 0.402,0.124 0.607,0.172l0,-11.064c0,-11.153 -21.39,-20.192 -47.783,-20.192c-26.39,-0.001 -47.783,9.042 -47.783,20.194l0,36.467c0,19.036 20.013,46.029 47.783,57.546c5.469,-2.266 10.625,-5.157 15.408,-8.447c-0.028,-0.005 -0.055,-0.003 -0.087,-0.008" fill="#000"/>
   <path id="svg_17" d="m127.754,66.316a5.631,5.631 0 0 0 -3.647,-2.349a5.664,5.664 0 0 0 -5.626,2.261l-14.9,-2.699l-2.076,-15.306a5.568,5.568 0 0 0 2.515,-3.724a5.627,5.627 0 0 0 -0.925,-4.246a5.611,5.611 0 0 0 -3.646,-2.346a5.67,5.67 0 0 0 -6.593,4.567a5.603,5.603 0 0 0 1,4.298l-7.346,13.666l-15.126,-2.742a5.673,5.673 0 0 0 -4.454,-4.058c-3.112,-0.56 -6.033,1.538 -6.583,4.57a5.67,5.67 0 0 0 4.565,6.59a5.402,5.402 0 0 0 2.736,-0.201l10.64,11.12l-7.275,13.531a5.676,5.676 0 0 0 -5.822,4.657a5.687,5.687 0 0 0 4.57,6.592a5.676,5.676 0 0 0 6.59,-4.57c0.063,-0.334 0.09,-0.664 0.083,-0.997l13.853,-6.676l10.763,11.252a5.714,5.714 0 0 0 -0.55,1.607a5.605,5.605 0 0 0 0.925,4.244a5.608,5.608 0 0 0 3.645,2.346a5.662,5.662 0 0 0 6.593,-4.565a5.624,5.624 0 0 0 -0.925,-4.242a5.623,5.623 0 0 0 -2.636,-2.066l-2.187,-16.11l13.805,-6.645a5.517,5.517 0 0 0 3.372,1.144a5.662,5.662 0 0 0 5.573,-4.66a5.593,5.593 0 0 0 -0.912,-4.243" fill="#000"/>
  </svg>
 </g>
</svg>