<?xml version="1.0" encoding="UTF-8"?>
<svg version="1.1" xmlns="http://www.w3.org/2000/svg" width="128" height="128">
<path d="M0 0 C14.14469723 12.754397 14.14469723 12.754397 14.8190918 19.02539062 C14.01105541 27.6304535 3.71474114 35.44268749 -2.4699707 40.87695312 C-18.47084039 53.37049859 -37.6825853 59.78967604 -58.02075195 57.75585938 C-80.54304699 54.3241327 -98.38256118 41.71554123 -112.48168945 24.22851562 C-113.90665944 21.37857565 -113.77877256 19.39225777 -113.48168945 16.22851562 C-103.49323475 -0.44357172 -84.86644136 -12.44506092 -66.48168945 -17.77148438 C-41.91521631 -23.02073077 -18.73417011 -16.28315651 0 0 Z M-71.66918945 4.72851562 C-76.29497135 11.10890445 -76.09452195 17.60110812 -75.48168945 25.22851562 C-74.80468817 28.00076175 -73.93061636 29.69289354 -72.48168945 32.22851562 C-71.94543945 33.23914063 -71.40918945 34.24976563 -70.85668945 35.29101562 C-67.00474481 40.05526294 -61.65857398 44.19903487 -55.48168945 45.22851562 C-47.69360797 45.85691902 -40.95687047 45.9769817 -34.48168945 41.22851562 C-28.8032159 36.19532316 -23.93941605 30.9246716 -23.1809082 23.14257812 C-23.15788213 16.67992781 -23.25405957 11.87686792 -26.48168945 6.22851562 C-27.01793945 5.21789062 -27.55418945 4.20726562 -28.10668945 3.16601562 C-31.95863409 -1.59823169 -37.30480492 -5.74200362 -43.48168945 -6.77148438 C-56.68145973 -7.8365452 -63.04207549 -5.13104318 -71.66918945 4.72851562 Z " fill="#000000" transform="translate(113.481689453125,44.771484375)"/>
<path d="M0 0 C3.37993745 3.65398644 4.86444177 6.23774296 5.25 11.25 C4.88456879 16.7314681 3.52745531 20.51171021 -0.4375 24.375 C-4.90916605 27.21069067 -8.71064163 27.44825071 -14 27 C-18.25050543 25.31550812 -21.6737176 23.00637525 -24 19 C-25.45490694 14.63527918 -25.90396005 10.36528406 -24.24609375 6.02734375 C-21.98192044 1.84528245 -19.64889412 -0.99524706 -15.1875 -2.6875 C-9.27629205 -3.53195828 -5.09203608 -3.28153436 0 0 Z " fill="#000000" transform="translate(74,52)"/>
</svg>
