<?xml version="1.0" encoding="UTF-8"?>
<svg version="1.1" xmlns="http://www.w3.org/2000/svg" width="128" height="128">
<path d="M0 0 C2.64982782 1.03890376 4.07769936 2.40805479 6.09638691 4.41560841 C6.8774329 5.1853046 7.65847889 5.9550008 8.46319294 6.74802113 C9.73437977 8.02360386 9.73437977 8.02360386 11.03124714 9.32495594 C11.93076603 10.21600529 12.83028492 11.10705463 13.75706196 12.02510548 C16.22261373 14.46843488 18.67843248 16.92132949 21.13194776 19.37673879 C23.17979009 21.42470073 25.23195432 23.46830509 27.28402013 25.51203364 C32.12284768 30.33162639 36.95345561 35.15935232 41.77929401 39.99194813 C46.76258073 44.98188372 51.76046048 49.95685719 56.76556236 54.92490274 C61.05991646 59.18860902 65.34459451 63.46187228 69.6217019 67.74287909 C72.17748323 70.30073216 74.7369314 72.8546309 77.30593014 75.39921474 C80.16729869 78.23428313 83.00826243 81.08897062 85.84765339 83.94604969 C87.13402195 85.21252338 87.13402195 85.21252338 88.44637775 86.50458241 C89.59679806 87.67181591 89.59679806 87.67181591 90.77045918 88.86262989 C91.44462533 89.53608354 92.11879148 90.20953718 92.81338692 90.90339851 C94.11596394 92.82959461 94.11596394 92.82959461 93.98521423 94.90565491 C92.66146708 97.83554716 90.4517307 99.67350221 88.11596394 101.82959461 C84.91493571 100.44697658 83.0896555 98.91484631 80.86596394 96.24756336 C74.71863631 88.45907219 74.71863631 88.45907219 66.23705769 84.50928211 C63.49122427 85.36970582 63.49122427 85.36970582 60.67846394 86.62256336 C50.02087749 90.23352193 34.41453428 89.23431039 24.11596394 84.82959461 C22.42793659 84.11609852 22.42793659 84.11609852 20.70580769 83.38818836 C12.68078812 79.78291677 6.25530016 75.1673295 0.11596394 68.82959461 C-0.52985638 68.18119617 -1.17567669 67.53279774 -1.84106731 66.86475086 C-6.46313196 61.94059049 -10.60014438 56.22080762 -12.88403606 49.82959461 C-12.25952667 38.22285902 -2.98544608 29.19747655 5.11596394 21.82959461 C0.99976557 16.91023559 -3.28813969 12.30311505 -7.88403606 7.82959461 C-3.98721275 -0.36063138 -3.98721275 -0.36063138 0 0 Z M22.11596394 37.82959461 C19.15209058 43.38685716 19.27865112 49.46028796 20.76830769 55.45459461 C23.53413254 63.24163798 27.99992448 68.48524609 35.36596394 72.26709461 C41.32876853 74.64609028 47.88645009 74.99828609 53.94408894 72.80615711 C54.66080769 72.48389149 55.37752644 72.16162586 56.11596394 71.82959461 C55.13730056 70.68333139 54.15801806 69.53759673 53.17846394 68.39209461 C52.36055378 67.43496571 52.36055378 67.43496571 51.52612019 66.45850086 C49.81636102 64.23681882 49.81636102 64.23681882 47.26049519 63.65381336 C46.49092487 63.60869617 45.72135456 63.56357899 44.92846394 63.51709461 C39.36574287 62.94225062 35.90378637 60.98731134 32.30346394 56.64209461 C31.14689782 53.90285907 30.98923226 52.3587963 30.86596394 49.45459461 C30.49959287 44.48360533 28.31122597 42.29908346 24.70971394 39.04443836 C23.31740889 37.72855805 23.31740889 37.72855805 22.11596394 37.82959461 Z " fill="#000000" transform="translate(17.88403606414795,16.170405387878418)"/>
<path d="M0 0 C1.12535156 0.47566406 2.25070313 0.95132812 3.41015625 1.44140625 C11.43517581 5.04667784 17.86066377 9.66226512 24 16 C24.64582031 16.64839844 25.29164062 17.29679687 25.95703125 17.96484375 C30.57909589 22.88900412 34.71610832 28.60878699 37 35 C36.3754906 46.60673559 27.10141001 55.63211806 19 63 C14.70401696 59.45114444 10.55582658 55.75911688 6.5 51.9375 C5.6234375 51.12152344 4.746875 50.30554688 3.84375 49.46484375 C2 47 2 47 2.19921875 44.484375 C2.59560547 43.25460938 2.59560547 43.25460938 3 42 C3.75031907 34.68131399 2.81621129 28.37104182 -1 22 C-5.68192471 16.59699795 -11.39730236 12.35201007 -18.70703125 11.79296875 C-24.17328493 11.66421462 -24.17328493 11.66421462 -29.44140625 12.88671875 C-32 13 -32 13 -33.51660156 11.95654297 C-35.20122997 10.39092042 -36.76151457 8.7604804 -38.3125 7.0625 C-38.86228516 6.48564453 -39.41207031 5.90878906 -39.97851562 5.31445312 C-41.33291509 3.88938934 -42.66834644 2.44634142 -44 1 C-32.95228876 -6.36514082 -11.76805582 -5.03321718 0 0 Z " fill="#000000" transform="translate(86,27)"/>
<path d="M0 0 C5.72043683 -0.45763495 8.59883843 0.28346356 13 4 C16.48521211 8.23877149 17.56416015 11.55200186 18 17 C14.97328771 15.64526876 12.87863194 14.1260408 10.546875 11.77734375 C9.928125 11.15666016 9.309375 10.53597656 8.671875 9.89648438 C8.03765625 9.25001953 7.4034375 8.60355469 6.75 7.9375 C6.1003125 7.28716797 5.450625 6.63683594 4.78125 5.96679688 C0 1.14034598 0 1.14034598 0 0 Z " fill="#000000" transform="translate(63,48)"/>
</svg>
